<?xml version="1.0" encoding="UTF-8"?>
<svg width="48px" height="48px" viewBox="0 0 48 48" version="1.1" xmlns="http://www.w3.org/2000/svg" xmlns:xlink="http://www.w3.org/1999/xlink">
    <title>accurracy-error</title>
    <g id="General" stroke="none" stroke-width="1" fill="none" fill-rule="evenodd">
        <g id="Icon-Export" transform="translate(-189.000000, -36.000000)" fill="#FE4854">
            <g id="Icons/icon+value-component/ivc-icon-analyst-Copy-6" transform="translate(189.000000, 36.000000)">
                <g id="icon__shape-2" opacity="0.2">
                    <circle id="icon__shape" cx="24" cy="24" r="24"></circle>
                </g>
                <g id="Icons/24px/Data/analytics" transform="translate(12.000000, 12.000000)">
                    <path d="M7.5,21.4285714 L7.5,19.9285714 L4.5,19.9285714 L4.5,4.92857143 L7.5,4.92857143 L7.5,6.42857143 L9,6.42857143 L9,4.92857143 L15,4.92857143 L15,6.42857143 L16.5,6.42857143 L16.5,4.92857143 L19.5,4.92857143 L19.5,9.42857143 L21,9.42857143 L21,4.92857143 C21,4.51587302 20.8531746,4.16269841 20.5595238,3.86904762 C20.265873,3.57539683 19.9126984,3.42857143 19.5,3.42857143 L19.5,3.42857143 L16.5,3.42857143 L16.5,1.92857143 L15,1.92857143 L15,3.42857143 L9,3.42857143 L9,1.92857143 L7.5,1.92857143 L7.5,3.42857143 L4.5,3.42857143 C4.08730159,3.42857143 3.73412698,3.57539683 3.44047619,3.86904762 C3.1468254,4.16269841 3,4.51587302 3,4.92857143 L3,4.92857143 L3,19.9285714 C3,20.3412698 3.1468254,20.6944444 3.44047619,20.9880952 C3.73412698,21.281746 4.08730159,21.4285714 4.5,21.4285714 L4.5,21.4285714 L7.5,21.4285714 Z M15.75,22.9285714 C17.4087302,22.9285714 18.8253968,22.3412698 20,21.1666667 C21.1746032,19.9920635 21.7619048,18.5793651 21.7619048,16.9285714 C21.7619048,15.2777778 21.1746032,13.8650794 20,12.6904762 C18.8253968,11.515873 17.4087302,10.9285714 15.75,10.9285714 C14.0912698,10.9285714 12.6785714,11.515873 11.5119048,12.6904762 C10.3452381,13.8650794 9.76190476,15.2777778 9.76190476,16.9285714 C9.76190476,18.5793651 10.3452381,19.9920635 11.5119048,21.1666667 C12.6785714,22.3412698 14.0912698,22.9285714 15.75,22.9285714 Z M15.75,21.4285714 C14.5039683,21.4285714 13.4404762,20.9880952 12.5595238,20.1071429 C11.6785714,19.2261905 11.2380952,18.1666667 11.2380952,16.9285714 C11.2380952,15.6904762 11.6785714,14.6309524 12.5595238,13.75 C13.4404762,12.8690476 14.5039683,12.4285714 15.75,12.4285714 C16.9960317,12.4285714 18.0555556,12.8730159 18.9285714,13.7619048 C19.8015873,14.6349206 20.2380952,15.6904762 20.2380952,16.9285714 C20.2380952,18.1666667 19.8015873,19.2261905 18.9285714,20.1071429 C18.0555556,20.9880952 16.9960317,21.4285714 15.75,21.4285714 Z M16.952381,19.1904762 L18,18.1190476 L16.5,16.6190476 L16.5,13.9285714 L15,13.9285714 L15,17.2380952 L16.952381,19.1904762 Z" id=""></path>
                </g>
            </g>
        </g>
    </g>
</svg>