<?xml version="1.0" encoding="UTF-8"?>
<svg width="48px" height="48px" viewBox="0 0 48 48" version="1.1" xmlns="http://www.w3.org/2000/svg" xmlns:xlink="http://www.w3.org/1999/xlink">
    <title>commit-success</title>
    <g id="General" stroke="none" stroke-width="1" fill="none" fill-rule="evenodd">
        <g id="Icon-Export" transform="translate(-109.000000, -196.000000)" fill="#00AF00">
            <g id="Icons/icon+value-component/ivc-icon-analyst-Copy-4" transform="translate(109.000000, 196.000000)">
                <g id="icon__shape-2" opacity="0.2">
                    <circle id="icon__shape" cx="24" cy="24" r="24"></circle>
                </g>
                <g id="Icons/24px/Data/analytics" transform="translate(12.000000, 12.000000)">
                    <path d="M12,22.4285714 C14.7460317,22.4285714 17.0992063,21.4484127 19.0595238,19.4880952 C21.0198413,17.5277778 22,15.1746032 22,12.4285714 C22,9.68253968 21.0198413,7.32936508 19.0595238,5.36904762 C17.0992063,3.40873016 14.7460317,2.42857143 12,2.42857143 C9.25396825,2.42857143 6.8968254,3.41269841 4.92857143,5.38095238 C2.97619048,7.33333333 2,9.68253968 2,12.4285714 C2,15.1746032 2.98015873,17.5277778 4.94047619,19.4880952 C6.90079365,21.4484127 9.25396825,22.4285714 12,22.4285714 Z M12,20.9285714 C9.65079365,20.9285714 7.64285714,20.1031746 5.97619048,18.452381 C4.32539683,16.7857143 3.5,14.7777778 3.5,12.4285714 C3.5,10.0793651 4.32936508,8.07539683 5.98809524,6.41666667 C7.6468254,4.75793651 9.65079365,3.92857143 12,3.92857143 C14.3492063,3.92857143 16.3531746,4.75793651 18.0119048,6.41666667 C19.6706349,8.07539683 20.5,10.0793651 20.5,12.4285714 C20.5,14.7777778 19.6706349,16.781746 18.0119048,18.4404762 C16.3531746,20.0992063 14.3492063,20.9285714 12,20.9285714 Z M12,18.4285714 C13.6507937,18.4285714 15.0634921,17.8412698 16.2380952,16.6666667 C17.4126984,15.4920635 18,14.0793651 18,12.4285714 C18,10.7777778 17.4126984,9.36507937 16.2380952,8.19047619 C15.0634921,7.01587302 13.6507937,6.42857143 12,6.42857143 C10.3492063,6.42857143 8.93650794,7.01587302 7.76190476,8.19047619 C6.58730159,9.36507937 6,10.7777778 6,12.4285714 C6,14.0793651 6.58730159,15.4920635 7.76190476,16.6666667 C8.93650794,17.8412698 10.3492063,18.4285714 12,18.4285714 Z M12,16.9285714 C10.7460317,16.9285714 9.68253968,16.4920635 8.80952381,15.6190476 C7.93650794,14.7460317 7.5,13.6825397 7.5,12.4285714 C7.5,11.1746032 7.93650794,10.1111111 8.80952381,9.23809524 C9.68253968,8.36507937 10.7460317,7.92857143 12,7.92857143 C13.2539683,7.92857143 14.3174603,8.36507937 15.1904762,9.23809524 C16.0634921,10.1111111 16.5,11.1746032 16.5,12.4285714 C16.5,13.6825397 16.0634921,14.7460317 15.1904762,15.6190476 C14.3174603,16.4920635 13.2539683,16.9285714 12,16.9285714 Z M12,14.4285714 C12.5555556,14.4285714 13.0277778,14.234127 13.4166667,13.8452381 C13.8055556,13.4563492 14,12.984127 14,12.4285714 C14,11.8730159 13.8055556,11.4007937 13.4166667,11.0119048 C13.0277778,10.6230159 12.5555556,10.4285714 12,10.4285714 C11.4444444,10.4285714 10.9722222,10.6230159 10.5833333,11.0119048 C10.1944444,11.4007937 10,11.8730159 10,12.4285714 C10,12.984127 10.1904762,13.4603175 10.5714286,13.8571429 C10.968254,14.2380952 11.4444444,14.4285714 12,14.4285714 Z" id="Fill"></path>
                </g>
            </g>
        </g>
    </g>
</svg>