<?xml version="1.0" encoding="UTF-8"?>
<svg width="48px" height="48px" viewBox="0 0 48 48" version="1.1" xmlns="http://www.w3.org/2000/svg" xmlns:xlink="http://www.w3.org/1999/xlink">
    <title>directs-warning</title>
    <g id="General" stroke="none" stroke-width="1" fill="none" fill-rule="evenodd">
        <g id="Icon-Export" transform="translate(-269.000000, -116.000000)" fill="#FF7800">
            <g id="Icons/icon+value-component/ivc-icon-analyst-Copy-11" transform="translate(269.000000, 116.000000)">
                <g id="icon__shape-2" opacity="0.2">
                    <circle id="icon__shape" cx="24" cy="24" r="24"></circle>
                </g>
                <g id="Icons/24px/Data/analytics" transform="translate(12.000000, 12.000000)">
                    <path d="M7,8.42857143 C7.85714286,8.42857143 8.57142857,8.14285714 9.14285714,7.57142857 C9.71428571,7 10,6.28571429 10,5.42857143 C10,4.58730159 9.70238095,3.87698413 9.10714286,3.29761905 C8.51190476,2.71825397 7.80952381,2.42857143 7,2.42857143 C6.19047619,2.42857143 5.48809524,2.71825397 4.89285714,3.29761905 C4.29761905,3.87698413 4,4.58730159 4,5.42857143 C4,6.28571429 4.28571429,7 4.85714286,7.57142857 C5.42857143,8.14285714 6.14285714,8.42857143 7,8.42857143 Z M17,8.42857143 C17.8571429,8.42857143 18.5714286,8.14285714 19.1428571,7.57142857 C19.7142857,7 20,6.28571429 20,5.42857143 C20,4.57142857 19.7142857,3.85714286 19.1428571,3.28571429 C18.5714286,2.71428571 17.8571429,2.42857143 17,2.42857143 C16.1428571,2.42857143 15.4285714,2.71428571 14.8571429,3.28571429 C14.2857143,3.85714286 14,4.57142857 14,5.42857143 C14,6.28571429 14.2857143,7 14.8571429,7.57142857 C15.4285714,8.14285714 16.1428571,8.42857143 17,8.42857143 Z M7,6.92857143 C6.6031746,6.92857143 6.25396825,6.77777778 5.95238095,6.47619048 C5.65079365,6.17460317 5.5,5.82539683 5.5,5.42857143 C5.5,5.03174603 5.65079365,4.68253968 5.95238095,4.38095238 C6.25396825,4.07936508 6.6031746,3.92857143 7,3.92857143 C7.3968254,3.92857143 7.74603175,4.07936508 8.04761905,4.38095238 C8.34920635,4.68253968 8.5,5.03174603 8.5,5.42857143 C8.5,5.82539683 8.34920635,6.17460317 8.04761905,6.47619048 C7.74603175,6.77777778 7.3968254,6.92857143 7,6.92857143 Z M17,6.92857143 C16.6031746,6.92857143 16.2539683,6.77777778 15.952381,6.47619048 C15.6507937,6.17460317 15.5,5.82539683 15.5,5.42857143 C15.5,5.03174603 15.6507937,4.68253968 15.952381,4.38095238 C16.2539683,4.07936508 16.6031746,3.92857143 17,3.92857143 C17.3968254,3.92857143 17.7460317,4.07936508 18.047619,4.38095238 C18.3492063,4.68253968 18.5,5.03174603 18.5,5.42857143 C18.5,5.82539683 18.3492063,6.17460317 18.047619,6.47619048 C17.7460317,6.77777778 17.3968254,6.92857143 17,6.92857143 Z M3.30952381,14.4285714 C3.30952381,13.4126984 3.66666667,12.5436508 4.38095238,11.8214286 C5.0952381,11.0992063 5.96825397,10.7380952 7,10.7380952 C7.11111111,10.7380952 7.24206349,10.7539683 7.39285714,10.7857143 C7.54365079,10.8174603 7.64285714,10.8333333 7.69047619,10.8333333 C8.1031746,10.2936508 8.43650794,9.92857143 8.69047619,9.73809524 C8.1031746,9.53174603 7.53968254,9.42857143 7,9.42857143 C5.6031746,9.42857143 4.42063492,9.91269841 3.45238095,10.8809524 C2.48412698,11.8492063 2,13.031746 2,14.4285714 L2,14.4285714 L3.30952381,14.4285714 Z M22,14.4285714 C22,13.031746 21.515873,11.8492063 20.547619,10.8809524 C19.5793651,9.91269841 18.3968254,9.42857143 17,9.42857143 C16.4603175,9.42857143 15.8968254,9.53174603 15.3095238,9.73809524 C15.6746032,10.0079365 15.968254,10.3730159 16.1904762,10.8333333 C16.3333333,10.7698413 16.6031746,10.7380952 17,10.7380952 C18.015873,10.7380952 18.8849206,11.0952381 19.6071429,11.8095238 C20.3293651,12.5238095 20.6904762,13.3968254 20.6904762,14.4285714 L20.6904762,14.4285714 L22,14.4285714 Z M12,16.4285714 C12.8571429,16.4285714 13.5714286,16.1428571 14.1428571,15.5714286 C14.7142857,15 15,14.2857143 15,13.4285714 C15,12.5714286 14.7142857,11.8571429 14.1428571,11.2857143 C13.5714286,10.7142857 12.8571429,10.4285714 12,10.4285714 C11.1428571,10.4285714 10.4285714,10.7142857 9.85714286,11.2857143 C9.28571429,11.8571429 9,12.5714286 9,13.4285714 C9,14.2857143 9.28571429,15 9.85714286,15.5714286 C10.4285714,16.1428571 11.1428571,16.4285714 12,16.4285714 Z M12,14.9285714 C11.6031746,14.9285714 11.2539683,14.7777778 10.952381,14.4761905 C10.6507937,14.1746032 10.5,13.8253968 10.5,13.4285714 C10.5,13.031746 10.6507937,12.6825397 10.952381,12.3809524 C11.2539683,12.0793651 11.6031746,11.9285714 12,11.9285714 C12.3968254,11.9285714 12.7460317,12.0793651 13.047619,12.3809524 C13.3492063,12.6825397 13.5,13.031746 13.5,13.4285714 C13.5,13.8253968 13.3492063,14.1746032 13.047619,14.4761905 C12.7460317,14.7777778 12.3968254,14.9285714 12,14.9285714 Z M8.30952381,22.4285714 C8.30952381,21.4126984 8.66666667,20.5436508 9.38095238,19.8214286 C10.0952381,19.0992063 10.968254,18.7380952 12,18.7380952 C13.015873,18.7380952 13.8849206,19.0952381 14.6071429,19.8095238 C15.3293651,20.5238095 15.6904762,21.3968254 15.6904762,22.4285714 L15.6904762,22.4285714 L17,22.4285714 C17,21.031746 16.515873,19.8492063 15.547619,18.8809524 C14.5793651,17.9126984 13.3968254,17.4285714 12,17.4285714 C10.6031746,17.4285714 9.42063492,17.9126984 8.45238095,18.8809524 C7.48412698,19.8492063 7,21.031746 7,22.4285714 L7,22.4285714 L8.30952381,22.4285714 Z" id="Fill"></path>
                </g>
            </g>
        </g>
    </g>
</svg>