<?xml version="1.0" encoding="UTF-8"?>
<svg width="48px" height="48px" viewBox="0 0 48 48" version="1.1" xmlns="http://www.w3.org/2000/svg" xmlns:xlink="http://www.w3.org/1999/xlink">
    <title>reviewdeals-neutral</title>
    <g id="General" stroke="none" stroke-width="1" fill="none" fill-rule="evenodd">
        <g id="Icon-Export" transform="translate(-349.000000, -196.000000)">
            <g id="Icons/icon+value-component/ivc-icon-analyst-Copy-13" transform="translate(349.000000, 196.000000)">
                <g id="icon__shape-2" opacity="0.2" fill="#C6C6C6">
                    <circle id="icon__shape" cx="24" cy="24" r="24"></circle>
                </g>
                <g id="Icons/24px/Data/bar-chart" transform="translate(12.000000, 12.000000)" fill="#264AFF">
                    <path d="M8.64,15.12 L2.88,15.12 L2.88,2.88 L15.84,2.88 L15.84,8.64 L17.28,8.64 L17.28,2.88 C17.28,2.08470996 16.63529,1.44 15.84,1.44 L2.88,1.44 C2.08470996,1.44 1.44,2.08470996 1.44,2.88 L1.44,15.12 C1.44,15.91529 2.08470996,16.56 2.88,16.56 L8.64,16.56 L8.64,15.12 Z M21.6,20.5776 L19.3608,18.3384 C20.66035,16.5074759 20.3407168,13.9862627 18.6253836,12.5375581 C16.9100503,11.0888535 14.3709016,11.1956494 12.7832755,12.7832755 C11.1956494,14.3709016 11.0888535,16.9100503 12.5375581,18.6253836 C13.9862627,20.3407168 16.5074759,20.66035 18.3384,19.3608 L20.5776,21.6 L21.6,20.5776 Z M15.84,18.72 C14.2494199,18.72 12.96,17.4305801 12.96,15.84 C12.96,14.2494199 14.2494199,12.96 15.84,12.96 C17.4305801,12.96 18.72,14.2494199 18.72,15.84 C18.72,17.4305801 17.4305801,18.72 15.84,18.72 Z" id="Fill"></path>
                </g>
            </g>
        </g>
    </g>
</svg>